<?xml version="1.0" encoding="UTF-8"?>
<svg version="1.1" viewBox="0 0 1600 1600" width="400" height="400" xmlns="http://www.w3.org/2000/svg">
<path transform="translate(797,99)" d="m0 0 61 1 46 2 55 4 46 5 49 7 45 8 48 11 36 10 36 12 24 9 24 11 23 12 19 13 13 11 8 8 10 14 5 11 2 6 1 11v701l-1 28-6 12-8 8-15 9-23 13-24 14-52 30-22 13-24 14-45 26-26 15-24 14-52 30-22 13-52 30-24 14-52 30-22 13-24 14-20 12-7 4-5-2-23-13-27-16-26-15-24-14-26-15-24-14-28-16-26-15-24-14-26-15-48-28-28-16-52-30-53-31-78-45-16-10-8-9-5-12-1-8v-721l2-12 5-12 9-13 11-12 11-9 14-10 21-12 23-11 27-11 36-12 35-10 41-10 53-10 39-6 51-6 48-4 34-2 28-1z" fill="#1D333C"/>
<path transform="translate(326,337)" d="m0 0h941l19 1 11 4 10 8 6 10 1 4v151l-2 1h-1021v-146l2-8 6-10 10-9 11-5z" fill="#90A5AF"/>
<path transform="translate(709,724)" d="m0 0h90l1 211-2 1-23 2-24 5-22 8-21 11-14 10-10 8-11 10-9 11-10 13-12 21-8 20-5 18-4 25v27l4 22 3 12 10 28 1 2-6-2-23-13-22-13-27-16-23-13-25-14-24-14-28-16-30-18-2-2v-59l1-9 6-1 58-1 7-19 11-26 6-12-2-4-43-43 6-7 8-7 12-12 7-8 78-78 7-8 5-5h2l1-2 15 14 22 22 2 1v2h2v2h2v2l5 1 19-9 25-10 12-4h2z" fill="#608693"/>
<path transform="translate(296,723)" d="m0 0 411 1 2 1v63l-30 11-28 13-5-2v-2h-2v-2h-2v-2l-4-2-29-29-6-5-10 9-12 13-76 76-7 8-13 13-7 6 1 3 8 7 36 36-2 6-9 19-9 23-5 12-64 1v68l1 2-4-2-18-10-20-11-24-14-27-15-20-12-24-14-7-5-1-50v-213z" fill="#1B5262"/>
<path transform="translate(801,768)" d="m0 0 4 5 10 10 13 10 13 8 16 7 12 3 7 1h19l17-3 18-7 15-9 16-13 10-12h171l14 15 13 10 15 9 12 5 15 4 8 1h17l16-3 14-5 15-8 14-10 13-12 4-6h1v85l-9-2-163-1-8-10-9-8-9-6-10-4-14-6-19-5h-32l-16 4-13 5-13 8-10 8-9 8-8 7-169-1 2 7 3 3 5 3 9 8 14 9 13 6 14 4 11 2h26l19-4 15-6 11-6 16-12 5-6 3-1 2-3 172-1 10 11 7 4 10 8 15 8 19 6 12 2h25l16-3 19-7 12-7 13-10 8-8 5-2v82l-2-1-170-1-8-10-8-7-13-9-15-8-19-6-11-2h-23l-14 3-16 6-13 7-11 8-13 12-5 6h-171l-1-19v-145z" fill="#010102"/>
<path transform="translate(800,937)" d="m0 0h2l4 6 14 14 13 9 12 7 16 6 11 2h27l18-4 16-7 12-7 11-9 12-12 2-4 172-1 8 10 13 12 16 10 15 7 14 4 6 1h26l18-4 12-5 16-9 16-13 10-11h1v48l-17 10-21 12-23 13-9 5-3-1 3-1v-3l-63-2h-39l-7-9-11-10-8-4-12-7-19-7-14-3h-23l-16 2-17 6-14 8-7 5h-2l-2 4-8 7-10 9-169-1 1 6 4 2 14 14 14 9 13 6 17 5 11 2h20l15-3 17-5 19-10 11-9 10-10 2-3 3-1h169l6 7 8 7 9 8 17 10 5 3-5 4-13 8-36 21h-4v-2l-4-2-13-9-15-8-18-6-10-2h-25l-17 4-17 7-14 9-10 8-15 15h-169l-1 2-1-9z" fill="#010102"/>
<path transform="translate(798,935)" d="m0 0h2v254l-1 92-11-6-24-14-14-8-24-14-25-14-24-14-21-12-13-8-2-2v-2l-8-22-4-13-4-21-1-6v-27l4-25 6-21 8-19 13-22 13-16 10-11 8-7 13-10 16-10 19-9 21-7 20-4z" fill="#1B5161"/>
<path transform="translate(972,1107)" d="m0 0h128v3l-17 10-16 9-24 14-28 16-22 13-25 15-9 4h-159v-81l2-2 9 10 7 7 18 13 17 8 14 4 14 2 18-1 18-4 16-7 13-8 11-9 10-10 3-5z" fill="#010102"/>
<path transform="translate(791,1019)" d="m0 0h8l1 2v168l-2 1-22-4-15-6-14-9-13-13-10-16-6-16-2-8v-29l5-16 8-16 9-11 5-5 8-7 14-8 15-5z" fill="#8FA4AF"/>
<path transform="translate(1133,723)" d="m0 0h153l28 1v41l-2 2-166-1-6-2-9-10-9-8-15-9-12-6-16-5 2-2z" fill="#010102"/>
<path transform="translate(800,723)" d="m0 0h136l98 1-1 2-15 5-16 8-13 9-13 12-4 5-8 1h-160l-2-1-1 2-1-9z" fill="#010102"/>
<path transform="translate(1164,768)" d="m0 0h143l3 2-9 10-7 8-18 12-17 8-15 4-8 1h-17l-17-3-16-6-14-8-12-9-9-10-5-6 1-2 10 1z" fill="#1B5160"/>
<path transform="translate(821,768)" d="m0 0h112l5 1 20 1 5 5-3 5-7 8-11 8-16 9-18 6-13 2h-19l-16-3-15-6-11-6-11-8-11-9-5-7v-2l4-2 3-1z" fill="#1B5060"/>
<path transform="translate(1170,938)" d="m0 0h100l32 1 6 2-3 2-3 6-8 9-13 9-17 9-13 4-11 2h-26l-17-4-12-5-13-7-11-8-4-4v-3l-4-2v-2l-4-2 3-5z" fill="#1B5060"/>
<path transform="translate(803,1107)" d="m0 0h134l23 1 3 1-1 5-6 7-11 9-11 7-12 6-13 4-17 2h-18l-17-3-13-5-9-5-6-2-13-10-13-13z" fill="#1B5161"/>
<path transform="translate(824,938)" d="m0 0h102l26 1 8 1v2h2l-2 6-3 4-5 3-10 9-18 10-12 4-11 2-21 1-17-2-17-6-10-4-13-9-10-9-8-8v-3l4 1v-2z" fill="#1B5161"/>
<path transform="translate(1047,979)" d="m0 0h23l17 4 16 6 14 8 10 9 5 5 4 5v2l-6 1-5 1h-125l-6 1h-20l2-4 7-8 7-6 3-3 14-9 12-6 12-4z" fill="#5F8592"/>
<path transform="translate(1044,892)" d="m0 0h23l18 4 16 6 16 9 4 5 8 7 2 4-6 5-7 1-103 1h-23l-14-1-2-2 10-10 6-7 16-10 16-7 14-4z" fill="#1B5060"/>
<path transform="translate(1036,726)" d="m0 0h40l15 4 13 4 18 11 3 3-1 6-1 2h2l2 4-1 4-1 1h-151l6-7 16-16 13-8 9-4z" fill="#1B5161"/>
<path transform="translate(628,189)" d="m0 0h13l1 1v93h-14l-1-1v-7l-6 2v2l-4 1v2l-7 3h-14l-9-4v-2l-4-1-4-4v-3h-2l-4-11-1-5v-10l3-12 2-4 8-7 9-5 4-1 14 1 12 6 3 2v-35z" fill="#F4F6F7"/>
<path transform="translate(854,189)" d="m0 0h15v38h2v-2l4-3h3v-2l7-3h15l9 4 6 4 6 9 2 5v24l-1 3h-2l-2 6-6 6h-2v2l-7 4-4 1h-16l-6-3-5-4-3-1v6h-8l-6-1-1-3z" fill="#F8F9F9"/>
<path transform="translate(1040,810)" d="m0 0h32l19 5 16 7 12 7 10 8 6 8-2 1v3l-6 1h-142l-9-1 2-5 12-11 11-8 10-6 15-6z" fill="#608693"/>
<path transform="translate(1160,854)" d="m0 0h150l-3 5-9 9-14 10-16 8-16 5-12 2h-25l-16-3-17-6-13-7-10-8-10-9-3-3 1-2z" fill="#608693"/>
<path transform="translate(820,854)" d="m0 0h142l6 1-1 3-5 5-7 6-16 11-15 7-14 4-11 2h-26l-19-4-13-5-13-7-14-11-6-5-1-5 2-1z" fill="#608693"/>
<path transform="translate(804,1023)" d="m0 0h73l91 1-2 4-9 9-15 10-14 7-18 6-9 1h-32l-18-4-15-6-16-10-12-11-4-4z" fill="#608693"/>
<path transform="translate(1057,1064)" d="m0 0 15 2 12 1 4 2 12 3 17 10 4 3v2l5 2v4l-12 6-9 5h-10l-7-1h-91l-16-1-5 1 2-4 17-17 10-7 21-8 18-2z" fill="#1B5161"/>
<path transform="translate(675,216)" d="m0 0h17l7 4v2h2v2h3v-6l1-1h14l1 1v64l-1 1h-15v-8l-5 1v3l-3 2h-3v2l-3 1h-14l-8-3-9-7-4-6-5-11v-14l4-10 7-9 9-6z" fill="#F4F6F7"/>
<path transform="translate(801,216)" d="m0 0h12l10 5 6 4v-7h13v63l-1 1h-11l-1-7-5 2-4 2v2l-11 3h-11l-9-4v-2l-5-2-6-8-5-12v-13l7-14 10-9z" fill="#F8F9FA"/>
<path transform="translate(796,384)" d="m0 0 5 5 11 19 2 2 22 4 6 3-3 6-15 15v13l2 10v7l-3 2-6-1-18-10-6 1-17 9-6 1-2-6 2-18 1-7-14-13-4-6 1-5 13-3 15-2 2-6 9-17z" fill="#1C323C"/>
<path transform="translate(1121 1e3)" d="m0 0 4 2 10 9 6 8h42l60 2 1 2-1 2-11 4-41 24-1 2-8 1-14-8-11-9-15-15h-169l-3 1-7 8-8 8-10 7-17 9-21 6-11 2h-20l-16-3-17-6-15-8-8-6h3l13 8 15 6 18 4h32l12-2 20-7 15-9 11-8 8-8 1-2h-162l-2-1-1 3-1-6h169l6-5-3 6 3-1h19l9-1h120l11-1-4-6-5-5z" fill="#1C323B"/>
<path transform="translate(802,1192)" d="m0 0h154l-1 3-17 9-21 12-19 11-9 5-10-1-25-4-16-6-11-6-12-9-8-7v-2h-2z" fill="#5F8592"/>
<path transform="translate(479,183)" d="m0 0 8 1 7 3v2l5 1 4 2v2l9 3v2l4 1 8 4 1 6-3 1-4-2-1-2-5-2v-2l-5-2-10-5-7-3v-2h-9l-8 2-1 3-9 4-15 8h-2v2l-7 3v2l7 4 2 1v2l9 3v2l5 1v2l6 2 6 3v2l4 1h11l4-1v-2l10-5h2v-2l6-3 10-6 11-6 1-1h5l1 1v21l-15 9-7 4h-3v2l-9 4h-2v2l-7 2v2l-11 5h-6l-5-3v-2l-7-2v-2l-6-1-1-3-9-3-2-1v-2l-4-1-11-6 2 11 3 3 7 3v2l8 2 21 12v2h5l1 1 9-1 4-1v-2l5-1 1-3 10-3 1-3 7-3 6-3h2v-2l9-3v-2h4v23l-2 2-6 1v2l-7 2v2l-7 2v2l-9 4h-2v2l-9 3-1 3-6 1-1 3-2 1h-7l-23-13-22-12-6-4-1-1v-5l3-1 3 2v2l8 2 22 12 16 9 6 1 9-3 1-3 8-2v-2l14-8 10-4 3-2 1-11-9 4h-2v2l-9 4h-2v2l-8 4-15 8h-7l-8-3-1-3-6-1-10-6v-2l-10-3-3-2v-2l-6-2-4-2v-2h-2l-2-3v-21l5 1 4 2v2l6 2 12 6v2l7 2v2l8 2 1 3 5 1 2 1v2h9l9-5h2v-2l12-6h2v-2l7-2v-2l6-3 4-1v-2l4-1-1-3v-7l-18 9h-2v2l-10 5-9 5-4 1-1 3-7 1v-2h-4v-2l-5-1v-2l-5-1v-2l-7-2v-2l-5-1v-2l-9-3-4-2v-2l-5-1-2-1v-2l-6-2-1-4 2-2h4v-2l12-6h2v-2l8-4 11-6 7-4 4-1z" fill="#E8ECEE"/>
<path transform="translate(801,1194)" d="m0 0 6 3 8 10 13 10 16 9 15 5 9 2 13 2-5 5-17 9-27 16-20 12-9 5h-2l-1-63v-24z" fill="#010102"/>
<path transform="translate(1072,189)" d="m0 0h13l1 53 7-6 17-17h3v-2h15l-2 4-6 6h-2l-1 3-4 3-1 3-7 5-1 2h-2l1 5 9 10 1 4 3 1 6 8v2l4 2v3l3 1v4h-14l-2-1v-2l-4-2-9-12v-2l-3-1-7-8-3-1-1 28-1 1h-12l-2-2v-90z" fill="#F3F5F6"/>
<path transform="translate(1113,825)" d="m0 0 5 2 13 10 9 10 1 2 163 1 4 2-2 1h-162l-1 2-3-1-170 1-3 3v-2l-5-1h-153l-1 6-5-4-1-7h169l7-6-2 5 6-1 6 1h145l1-4-5-6v-2l-4-2-12-9z" fill="#1D323B"/>
<path transform="translate(1030,216)" d="m0 0h14l8 3 10 5-1 5-4 6-5-1-3-2-6-1h-9l-8 3-4 4h-2l-2 9v8l3 7 4 5 2 1v2l14 1 9-1 3-2 5 1v2l3 1v5h-2l-1 3-6 1v2h-7v2h-17l-6-2v-2l-6-2-5-4-4-7-1-4h-2l-1-4v-20l5-10 4-5 11-7z" fill="#F4F6F7"/>
<path transform="translate(1148,216)" d="m0 0h11l7 2 6 3 4 4v2h2l-1 4-6 4h-5l-4-5-2-1-10-1-2 4 1 7 8 4 11 4 6 4 4 4v3h2v11l-1 2h-2l-1 5-4 4h-2v2l-6 1v2h-17l-6-3-5-5-1-3h-2v-3h-2l2-4 5-2 3-1 3 1 5 5 6 3 6-1 2-1 1-3v-7l-5-3-10-3-10-5-3-3v-3h-2v-16l2-4h2l2-4z" fill="#F6F7F8"/>
<path transform="translate(576,551)" d="m0 0h17l8 4 6 7 2 10v10l-3 12-4 5h-3v2l-4 2-23 1-1-1v-33l1-18z" fill="#F9FAFA"/>
<path transform="translate(739,198)" d="m0 0h14l1 2v18h15v10l-1 1h-14l1 40 1 1 12 1v2h3v9l-2 2h-17l-6-3-3-3-4-7v-41h-9l-3-1v-10l1-1h11z" fill="#F6F8F8"/>
<path transform="translate(1155,1023)" d="m0 0h34l51 1-1 2-14 7-17 10-18 11h-6l-13-7-13-10-10-9-3-4z" fill="#608693"/>
<path transform="translate(885,229)" d="m0 0h8l8 3 8 8 2 8v8l-3 7-5 5-3 2h-4v2l-10 1-8-3-5-4-3-4-1-5v-16l7-8z" fill="#20363F"/>
<path transform="translate(692,630)" d="m0 0h7l1 1v54h-7l-2-2v-4h-2l-2 5-2 1h-12l-5-4v-3h-2l-2-4v-16l1-3h2l1-5 3-1 1-2 3-1h11l5 3z" fill="#F2F4F5"/>
<path transform="translate(802,230)" d="m0 0h12l8 4 7 9 1 10-2 7-6 7h-2v2l-6 3h-12l-6-3-6-8-2-3v-14l3-6 8-7z" fill="#20363F"/>
<path transform="translate(601,230)" d="m0 0h11l10 6 5 7v15l-7 9-4 3h-4v2h-12l-6-4-7-8-1-2v-15l4-6 6-5z" fill="#20363F"/>
<path transform="translate(679,230)" d="m0 0h11l6 3 8 8 1 3v13l-6 9-6 5-3 1h-11v-2l-5-1-6-5v-2h-2l-1-3v-17l4-6 7-5z" fill="#20363F"/>
<path transform="translate(758,549)" d="m0 0h6l1 1v19l5-3h13l2 1v2l4 2 3 4v19l-6 8-3 2h-12l-7-3v2h-6l-1-1v-52z" fill="#EFF2F3"/>
<path transform="translate(961,217)" d="m0 0h6l2 7v6l-1 1-9 1-6 4h-2v3h-2l-2 8-1 34-4 2h-8l-2-4v-33l1-28h13v8l7-4 3-1v-2z" fill="#F0F3F4"/>
<path transform="translate(782,646)" d="m0 0h8l2 2 2 7v29l-1 1h-6l-1-1-1-29-5-2-3 1v30l-1 1h-6l-1-1-1-30h-5l-1 30h-7l-1-6v-31h20l3 1z" fill="#EAEEF0"/>
<path transform="translate(979,218)" d="m0 0h15v65h-14l-1-1z" fill="#EEF1F2"/>
<path transform="translate(721,566)" d="m0 0h14l5 2 4 6 1 27-2 3h-5l-1-2-5 2-2 1h-11l-4-2-3-5v-11h2l1-3 3-2 16-1h1l1-6-3-1h-7l-5 2-4 3h-4v-6l3-4h2v-2z" fill="#EFF2F3"/>
<path transform="translate(1121 1e3)" d="m0 0 4 2 10 9 6 8h42l60 2 1 2-1 2-65-1h-23l-9 1 9 9 13 10 10 6 6 3 6 1v1l-8 1-14-8-11-9-15-15h-7l-1-1-161-1 1-5 3-2-3 6 3-1h19l9-1h120l11-1-4-6-5-5z" fill="#1C3640"/>
<path transform="translate(629,566)" d="m0 0h14l5 2 4 6 1 26-1 4h-5l-4-2-5 3h-11l-7-6v-11l5-5 5-2h13l1-6-3-1h-7l-5 2-6 3h-2l1-8h2l1-3z" fill="#F1F3F4"/>
<path transform="translate(815,646)" d="m0 0h12l8 6v3l3 1v12h-27l2 8 2 1h8l5-1 2-3 6-1v5l-5 6h-3v2h-14l-5-3-5-6-2-5v-10l1-4h2v-4h2l1-3h2v-2z" fill="#F1F3F4"/>
<path transform="translate(723,646)" d="m0 0h13v2l4 1 4 6 1 13v12l-1 4h-5v-5l-6 4-1 2h-13l-5-3-2-4v-11l5-4 14-1h4l1-3-3-5h-9l-5 3-1 2-5 1 1-8 6-5z" fill="#F4F6F7"/>
<path transform="translate(954,646)" d="m0 0h12v2l4 1 2 6h2v29h-7l-2-3-3 4h-14l-6-6v-11l6-5 17-1 1-6h-2l-1-2h-9l-5 4-6 1v-6l6-5z" fill="#F2F4F5"/>
<path transform="translate(943,549)" d="m0 0h6l1 2v28l5-2 9-10 8-1v5l-6 4-3 5h-2v7l4 2 3 4v2h2v2l6 3v4h-9l-10-11-5-6-2-1v18h-7l-1-1v-53z" fill="#EBEEF0"/>
<path transform="translate(527,632)" d="m0 0h35v6l-1 1h-26v16h23l1 1v5l-1 1-21 1-1 21-1 1h-8z" fill="#E9EDEF"/>
<path transform="translate(580,558)" d="m0 0h11l5 3 4 5 1 3v17l-2 5-6 5-3 1h-10l-1-1v-37z" fill="#223841"/>
<path transform="translate(575,646)" d="m0 0 6 1 1 28 1 3 10-2 5-5 1-23 8-1 1 1v36l-1 1h-7l-1-1v-5h-3l-2 5-1 1h-14l-4-4-2-4v-30z" fill="#EAEEEF"/>
<path transform="translate(633,646)" d="m0 0h13v2l3 1v2h2l2 4 1 12v17l-1 1h-6l-1-1-1-25-2-4h-11l-3 1-1 4-1 25h-7l-1-1v-37h8v3l5-3z" fill="#EBEFF0"/>
<path transform="translate(996,566)" d="m0 0h14l5 2 3 5v5h-5l-6-5h-6l-4 1v5l13 2 6 3v2l4 1v10h-2l-1 4-6 4h-13l-4-2v-2l-4-2-2-2v-5l1-1h5l2 4h2v2h9l3-1 2-6-12-2-7-3-3-3-1-7 3-6z" fill="#EEF1F3"/>
<path transform="translate(1044,646)" d="m0 0h12l6 4 2 3v5h-7l-1-4h-11l-2 4v2l16 3 6 4 1 1v9l-5 6-6 3h-9l-6-3-4-3v-3h-2v-5l7 1 4 4 10 2v-2h2l-1-7-10-1-8-4-3-5v-6l2-4z" fill="#EEF1F2"/>
<path transform="translate(866,646)" d="m0 0h9l5 4 3 5 1 4v26h-7l-1-1-1-23-3-6-1-1h-6l-6 2-1 3-1 24-1 1h-6v-37h6l2 1v2l4-3z" fill="#EFF1F3"/>
<path transform="translate(805,566)" d="m0 0h11l3 2v3h3l2-5h14l1 1v5l-2 2-13 2-1 3h-2l-1 18h11l2 1v5l-1 1h-27l-1-5 1-2 7-1v-22h-7l-1-1v-6z" fill="#EEF1F2"/>
<path transform="translate(906,566)" d="m0 0h15v2l4 1 3 3v3h2v4h-6v-2h-3v-2l-3-1h-10l-4 6v11l1 4h2v2l13-1 2-4 1-1h6l1 4-6 7-6 3h-11l-6-4-5-6-1-3v-12l3-8 5-5z" fill="#EFF1F3"/>
<path transform="translate(991,629)" d="m0 0 11 1 4 2 1 3v43h13v6l-2 1h-30l-1-1v-6h13l-1-40-11-1v-7z" fill="#EFF2F3"/>
<path transform="translate(907,637)" d="m0 0h4v10h15l1 1v5l-2 1h-13l1 22 1 1 12 1v6l-2 1h-12l-5-3-3-5v-23l-9-1 1-5 8-1 1-7z" fill="#F0F3F4"/>
<path transform="translate(676,556)" d="m0 0 5 1v9h14l1 1v5l-1 1-13 1v20l3 3h11v6l-1 1h-14l-6-5-1-4-1-21-7-2v-5l2-1h6z" fill="#F5F6F7"/>
<path transform="translate(1113,825)" d="m0 0 5 2 13 10 6 6 2 5v4h-166l2-6 3-2-2 5 6-1 6 1h145l1-4-5-6v-2l-4-2-12-9z" fill="#1B5161"/>
<path transform="translate(851,567)" d="m0 0h17l1 1v29h11l2 2-1 5h-30l-1-5 10-2 1-24h-10z" fill="#F2F4F5"/>
<path transform="translate(877,1023)" d="m0 0h92l-1 5-13 13-10 7-17 9-21 6-11 2h-20l-16-3-17-6-15-8-8-6h3l13 8 15 6 18 4h32l12-2 20-7 15-9 11-8 8-8 1-2h-91z" fill="#1B4B5A"/>
<path transform="translate(1121 1e3)" d="m0 0 4 2 10 9 3 3 2 8h-167l1-5 3-2-3 6 3-1h19l9-1h120l11-1-4-6-5-5z" fill="#1B5161"/>
<path transform="translate(679,653)" d="m0 0h6l2 1v2l4 2 1 1v12l-4 6-9 2-6-4-2-5v-9l3-5z" fill="#253C45"/>
<path transform="translate(770,573)" d="m0 0h9l4 4 2 3v10l-1 3h-2v2l-5 2h-8l-4-4v-16l1-2z" fill="#233B45"/>
<path transform="translate(949,563)" d="m0 0h1v16l5-2 9-10 8-1v5l-6 4-3 5h-2v7l4 2 3 4v2h2v2l6 3v4h-9l-10-11-5-6-2-1v7h-1z" fill="#E8ECEE"/>
<path transform="translate(803,851)" d="m0 0 21 1 145 1-1 5-1-2-5-1h-153l-1 6-5-4z" fill="#1B5161"/>
<path transform="translate(981,190)" d="m0 0h8l5 3 1 2v6l-4 2v2l-7 1-5-3-3-4 1-4z" fill="#F2F4F5"/>
<path transform="translate(820,1041)" d="m0 0 5 2 11 7 15 6 18 4 39 1-1 2-11 2h-20l-16-3-17-6-15-8-8-6z" fill="#1C3D48"/>
<path transform="translate(1146,852)" d="m0 0h164l1 4-2 1v-2h-149l-13 1 6 7 1 2-4-2-6-6v-4z" fill="#1B4F5F"/>
<path transform="translate(811,668)" d="m0 0h26v8l-1-4-6 2-2 3-5 1h-8l-3-2z" fill="#2C4751"/>
<path transform="translate(811,1203)" d="m0 0 4 2 12 9 15 8 16 5 21 3 10 2v1l-26-1-8-1-13-5-14-8-14-11z" fill="#1C3B46"/>
<path transform="translate(815,653)" d="m0 0h11l5 5-1 5h-18l-1-6z" fill="#245260"/>
<path transform="translate(723,668)" d="m0 0h12v7l-4 4h-9l-1-3h-2v-5z" fill="#304953"/>
<path transform="translate(960,668)" d="m0 0h5v8l-1 2-3 1h-9l-3-3v-6z" fill="#2E4852"/>
<path transform="translate(954,653)" d="m0 0h9l1 3h2v6l-1 1h-15v-2l-2-1 3-5z" fill="#253C46"/>
<path transform="translate(1043,977)" d="m0 0h25l17 4 11 4-3 1-14-4-9-2h-23l-16 2-14 5-3-1 15-6z" fill="#1C3E4A"/>
<path transform="translate(629,588)" d="m0 0h13l1 1v5l-5 4h-9l-2-3v-5z" fill="#263E47"/>
<path transform="translate(824,566)" d="m0 0h14l1 1v5l-2 2-14 2v-3l-3-1 2-1z" fill="#DEE4E7"/>
<path transform="translate(721,588)" d="m0 0h13l1 1v5l-6 4-9-1v-7z" fill="#203740"/>
<path transform="translate(1144,1023)" d="m0 0h11v1l-9 1 9 9 13 10 10 6 6 3 6 1v1l-8 1-14-8-11-9-12-12z" fill="#1B4450"/>
<path transform="translate(862,549)" d="m0 0 6 1 4 2v5l-4 2-8-1-1-6z" fill="#EBEEF0"/>
<path transform="translate(820,1041)" d="m0 0 5 2 11 7 15 6 18 4-4 2-8-1-16-6-13-7-8-6z" fill="#1C3E4A"/>
<path transform="translate(965,858)" d="m0 0 2 1-8 9-15 11-19 9-7 1 2-2 13-5 11-6 16-12z" fill="#1C3D48"/>
<path transform="translate(803,851)" d="m0 0 21 1 2 2-6 1h-11l-1 6-5-4z" fill="#1B505F"/>
<path transform="translate(579,559)" d="m0 0 2 3 1 5-1 29h9v1h-10l-1-1z" fill="#5B7F8C"/>
<path transform="translate(968,1025)" d="m0 0v3l-13 13-10 7-10 3 3-3 10-6 11-8z" fill="#1B4755"/>
<path transform="translate(861,558)" d="m0 0h9l-2 8-2 1h-14v-1h7v-2h2l-1-4z" fill="#3C6A78"/>
<path transform="translate(952,654)" d="m0 0 2 1-3 3h7v2h7l1-4v6l-1 1h-15v-2l-2-1 3-5z" fill="#416B78"/>
<path transform="translate(811,1203)" d="m0 0 4 2 12 9 15 8v1l-7-1-11-7-11-9z" fill="#1C414D"/>
<path transform="translate(825,275)" d="m0 0h4l1 7 12-1v2h-14l-8-2v-2z" fill="#496E7B"/>
<path transform="translate(674,656)" d="m0 0 1 2 1 14-2 4-3-6v-9z" fill="#4C7583"/>
<path transform="translate(1167,1045)" d="m0 0 4 1 13 7 6 1v1l-8 1-14-8z" fill="#1C3F4B"/>
<path transform="translate(858,1228)" d="m0 0 16 1 15 3v1l-16-1-11-1z" fill="#1B5262"/>
<path transform="translate(1113,825)" d="m0 0 5 2 13 10 6 6-1 2-7-6v-2l-4-2-12-9z" fill="#1C3B46"/>
<path transform="translate(813,654)" d="m0 0 2 1-2 5h11l6 2v1h-18l-1-6z" fill="#7996A2"/>
<path transform="translate(990,746)" d="m0 0 2 1-16 16-1-3 8-8z" fill="#1C3D48"/>
<path transform="translate(1121 1e3)" d="m0 0 4 2 10 9 3 3-1 2-7-6-5-5z" fill="#1C404D"/>
<path transform="translate(726,657)" d="m0 0 3 1-3 2h7l4-1-2 4h-15l3-1 2-4z" fill="#4A7482"/>
<path transform="translate(968,1025)" d="m0 0v3l-13 13-2-1 5-5z" fill="#1C3E4A"/>
<path transform="translate(737,679)" d="m0 0h2v5h5v1h-10l-2-2z" fill="#5F838F"/>
<path transform="translate(1155,267)" d="m0 0 4 1 2 5-6 1-3-2 2-1z" fill="#366674"/>
<path transform="translate(939,1049)" d="m0 0 2 1-11 6-2-1v-2z" fill="#1C3B46"/>
<path transform="translate(1045,653)" d="m0 0 2 1 1 2-1 2 2 1-6 1-1-4z" fill="#39626F"/>
</svg>
