<?xml version="1.0" encoding="UTF-8"?>
<svg version="1.1" viewBox="0 0 832 812" width="208" height="203" xmlns="http://www.w3.org/2000/svg">
<path transform="translate(0)" d="m0 0h832v812h-832z" fill="#FCFBFA"/>
<path transform="translate(475,44)" d="m0 0 4 1 8 7v2l4 2 12 13 11 12 7 9 9 10 9 11 11 12 7 8 8 8 7 8 12 14 7 10 8 14 3 6 22 13 21 12 21 10 29 13 33 17 15 5 17 3 3 3-3 6-10 10-14 9-13 6 5 4 15 11 13 10 14 12 15 14 7 7 9 11 7 11-1 4-7-1-4-1 2 5 5 10 1 7-3 3h-8l-50-10-21-3-25-2 3 11-1 5-11 2-5 16-3 12-1 7v12l3 11 5 12 7 9 2 4 6 2 24 10 16 8 5 6 5 11 3 14 2 18v14l-2 6-10 7-20 8-24 7-31 7-46 8-36 6-35 7-35 8-90 23-21 5-14 8-9 3-7 1-18-1-28-5-38-9-25-7-25-8-30-10-53-15-34-10-29-9-8-5 1-5 5-11 5-18 1-7v-18l-1-7v-20l5-1 14-1 5-1-24-9-22-9-10-5-7-10-5-12-1-4v-15l3-11 4-9 4-6v-2l-12 3-23 5h-9l-1-4 4-10 1-4-10 5-5 3h-3l1-4 10-13 11-13 11-14 7-8-34 14-4-2 4-6 22-22 8-7 13-11 17-13 14-10 21-14 17-11 15-10 2-2-19 4-21 6-21 8-14 6-11 7h-4l1-4 13-10 12-11 7-8 13-13 8-7 10-9 15-15 8-7 19-19 14-16h2l2-4 12-13 5-5 7-5 11-3h15l13 2 21 6 20 9 21 11 19 13 17 12 26 22 18 18 2-18 5-15 8-16 7-11 10-13 11-11 15-11 20-11 23-11 9-6 6-8 3-9v-17l-5-13-10-14-10-12z" fill="#040504"/>
<path transform="translate(604,198)" d="m0 0 5 2 13 8 17 10 16 8 14 6 18 8 38 19 16 6 7 2 8 1v3l-10 9-11 7-12 6-17 5-6 1h-39l-35-3h-28l-18 2-23 5-17 6-16 8-12 8-11 9-13 12-9 11-11 15-8 13-7 17-5 15 4-4 6-16 10-19 12-17 9-10 7-8 12-11 17-12 16-8 13-5 15-4 18-3 18-1h15l29 2 11 1 13 1h20l13-2 5-1h8l8 7 14 10 13 10 14 12 13 12 4 4v2h2l5 6v2h2l7 9-4 1-21-9-32-14-24-9-27-8-20-4-17-2h-40l-35 5-21 5-20 7-14 6-18 11-13 10-11 9-9 11-7 10-6 11-1 5 8 2v2l-3 1h-30l-10-3-7-3 4-2 10 1-6-10v-2h-2l-4-6-5-5-10-9-11-7-7-5-28-14-17-7-27-9-29-7-24-4-24-3h-36l-46 5-43 7-27 6-21 6-27 10-17 7-2-1 16-15 7-7 11-9 12-10 19-14 41-27 27-18 4-1h42l25 3 26 6 27 9 29 13 22 12 24 15 14 10 12 10 8 7 10 9 15 15 7 8 8 10 9 11 5 5 5-23 5-19 7-14 9-11 13-13 16-12 15-11 17-12 16-12 16-13 15-13 10-9 9-11 6-9 4-11z" fill="#97D6EE"/>
<path transform="translate(595,404)" d="m0 0 57 1 27 1 1 2-6 18-3 15v19l3 11 2 5-1 4-41 7-124 19-31 5-218 34-5-1-3-7-5-24-1-8v-32l2-12 2-5 17-3 65-16 34-9 28-7 6 1 16 8 15 6 16 3h9l15-4 9-6 7-9 6-9 8-2 57-4z" fill="#F8FAFA"/>
<path transform="translate(687,492)" d="m0 0 8 2 13 6 17 7 10 5 7 4v2h2l4 11 4 20-1 4 1 3 1 16v5l-5 4-14 7-24 8-25 6-28 6-84 14-38 8-71 18-28 7-19 4h-3l2-5 5-12 3-8 1-22-3-12-7-11-4-5-13-8-11-5-21-7-11-4-16-3-10-3 1-2 15-3 18-2 28-5 16-2 13-3 12-1 6-2 15-2 9-2 17-2 7-2 15-2 9-2 17-2 7-2 20-3 21-3 14-3 32-5 33-6 29-5z" fill="#F12026"/>
<path transform="translate(503,77)" d="m0 0 5 5 8 9 9 11 11 12 9 11 14 15 9 9 9 11 10 13 8 13 4 9 1 7v14l-2 8-7 12-14 15-8 7-10 9-25 20-18 13-20 14-16 12-16 15-8 10-8 16-4 13-4 16h-4l-5-17-15-44-15-43-13-36-1-13v-10l4-15 6-14 9-15 9-11 11-12 12-10 16-9 16-8 21-11 6-5 6-9 3-14v-10z" fill="#97D6EE"/>
<path transform="translate(212,156)" d="m0 0h17l16 3 21 7 23 11 11 7 25 17 13 10 11 9 14 12 19 19 5 8 18 54 15 43 7 20 5 15v5l-5-5-6-8-15-16-8-8-8-7-12-11-19-14-12-8-21-13-25-13-29-12-19-6-24-6-26-4-12-1h-33l-20 3-25 6-16 5-17 6-3-1 5-4h2v-5l12-13 10-7 8-7 7-7 8-7 12-12 8-7 7-7 1-2h2l2-4 11-11 7-8 12-13 10-9z" fill="#96D6EE"/>
<path transform="translate(110,526)" d="m0 0h51l14 4 33 13 37 15 13 5h10l17-3h12l24 6 49 16 16 7 10 6 7 7 6 12 1 4v14l-4 10-8 10-8 6-8 3-15 1-21-3-29-6-35-10-60-20-44-13-44-11-30-6-2-1 3-10 4-18 1-13v-12l-1-12z" fill="#FAFBFA"/>
<path transform="translate(112,409)" d="m0 0h13l28 13 29 13 26 10 15 5 22 5 1 3-3 17v27l3 20 4 16 2 6-8-2-28-11-38-16-45-19-41-17-14-6-4-6-3-10v-14l5-13 8-11 7-6z" fill="#FAFAFA"/>
<path transform="translate(627,331)" d="m0 0h23l30 4 27 7 24 8 22 9 15 7 8 7 6 8 2 10-27-5-15-4-12-2-15-1h-33l-21 1-6 1-33 1-36 3-47 5-22 3-18 5-10 6-8 9-5 8-4 2h-3v-2l-6-1-2-2 16-21 8-10 11-12 11-8 12-8 23-11 19-6 16-4 36-6z" fill="#1AA850"/>
<path transform="translate(475,44)" d="m0 0 4 1 8 7v2l4 2 12 13 11 12 7 9 9 10 9 11 11 12 7 8 8 8 7 8 12 14 7 10 8 14 3 6 22 13 21 12 21 10 29 13 33 17 15 5 17 3 3 3-3 6-10 10-14 9-13 6 5 4 15 11 13 10 14 12 9 8v4l-4-1-11-10-11-9-32-24-2-2h-8l-8 2-10 1h-20l-17-1-18-2-21-1h-18l-20 2-18 4-18 6-16 8-12 8-10 8-10 9-10 11-10 13-11 18-8 17-4 11-4 2 2-9 6-16 7-14 9-13 10-13 14-15 11-9 12-9 12-7 19-8 24-6 12-2 12-1h28l35 3h39l17-4 15-6 11-7 10-8 3-4-11-2-15-5-25-12-26-13-14-6-10-4-19-10-19-11-13-8v20l-4 11-6 9-12 14-12 11-11 9-13 11-16 12-17 12-14 10-13 10-10 8-12 12-8 11-6 14-5 19-4 20h-3l-9-11-10-12-7-8-9-10-14-14-8-7-14-11-8-6-15-10-13-8-21-12-33-15-27-9-26-6-25-3-14-1v-1l-5-1 3-2 8-1 27 3 28 6 26 8 24 10 23 11 22 13 12 8 14 10 13 10 16 15 8 7 12 12 7 8 8 10-2-9-3-9-20-58-13-37-5-16-4-9-6-8-18-18-11-9-13-11-18-13-18-12-15-9-19-9-21-7-16-3h-17l-11 4-5 3-3-3 8-6 11-3h15l13 2 21 6 20 9 21 11 19 13 17 12 26 22 18 18 2-18 5-15 8-16 7-11 10-13 11-11 15-11 20-11 23-11 9-6 6-8 3-9v-17l-5-13-10-14-10-12zm28 33 3 13v10l-3 14-6 9-9 7-23 11-22 12-11 8-10 9-10 11-8 11-9 16-6 16-2 10v16l2 8 15 43 10 29 15 44 6 17 2 6 3-1 6-24 7-16 6-9 9-10 14-13 18-13 16-11 19-14 14-11 14-12 12-11 8-7 10-12 6-11 1-6v-14l-2-9-8-16-9-12-9-11-12-13-10-10-7-8-11-13-9-10-9-11-10-12z" fill="#2C1212"/>
<path transform="translate(214,332)" d="m0 0h14l24 2 9 1 27 4 29 7 24 8 23 10 19 10 11 7 14 10 7 7-3 1-18-8-12-5-22-8-32-8-22-4-31-4-34-2h-47l-26 2-38 6-26 6-25 7-28 10-24 11-6 3 2-4 9-11 11-13 13-15 6-4 21-7 31-7 44-7 39-4z" fill="#96D6EE"/>
<path transform="translate(232,393)" d="m0 0h36l22 1 10 2h3l19 2 8 2 9 1 23 5 5 2 6 1v2l-15 6-27 8-26 7-38 8-15 3-6-1-15-5-28-11-30-13-20-9v-2l12-1 10-3 28-2 9-2z" fill="#F0262C"/>
<path transform="translate(252,363)" d="m0 0 27 2 30 4 28 5 24 6 22 7 2-1 16 7 11 5 5 2 10 10v4l-4 3-7-1-21-11-7-7-16-5-17-3-27-5-42-4-15-1h-16l-21 2-46 3-61 8-35 6-36 7-16 5 1-5 6-8 7-6 10-4 43-12 39-8 28-4z" fill="#18A64F"/>
<path transform="translate(96,701)" d="m0 0h41l8 7 3 4 1 13-2 9-1 6 5 4 1 2 1 15-2 10-5 6-3 2-5 1h-43v-78z" fill="#050304"/>
<path transform="translate(144,33)" d="m0 0h29l12 3 8 7 5 8 2 13v11l-3 21-5 13-8 5-12 3h-19l-9-1-3-2v-7l4-4 6-1-1-48-1-6v-3l-6-3-3-4 2-4z" fill="#040404"/>
<path transform="translate(222,33)" d="m0 0h18l6 4 6 7 5 16 2 19-3 15-4 12-5 6-7 4-5 1h-8l-8-3-8-7-4-8-4-15v-14l5-20 5-9 5-6z" fill="#040404"/>
<path transform="translate(596,189)" d="m0 0 3 1 2 2 5 1 23 14 18 10 19 9 29 13 33 17 15 5 17 3 3 3-3 6-10 10-14 9-13 6 5 4 15 11 13 10 14 12 9 8v4l-4-1-11-10-11-9-32-24-2-2h-8l-8 2-10 1h-20l-17-1-18-2-21-1h-18l-20 2-18 4-18 6-16 8-12 8-10 8-10 9-10 11-10 13-11 18-8 17-4 11-4 2 2-9 6-16 7-14 9-13 10-13 14-15 11-9 12-9 12-7 19-8 24-6 12-2 12-1h28l35 3h39l17-4 15-6 11-7 10-8 3-4-11-2-15-5-25-12-26-13-14-6-10-4-19-10-19-11-13-8v20l-4 11-6 9-12 14-12 11-11 9-13 11-16 12-17 12-14 10-13 10-10 8-12 12-8 11-6 14-4 16-1-3h-2l-1 3 1-8 5-16 8-15 12-13 14-13 18-13 16-11 19-14 14-11 14-12 12-11 8-7 9-11 6-11 1-6v-14l-2-9z" fill="#291312"/>
<path transform="translate(406,33)" d="m0 0h18l6 4 5 6 4 9 3 14 1 14-5 21-3 6-4 5-8 4-11 1-9-3-8-7-4-8-4-17v-11l5-21 6-11 6-5z" fill="#050404"/>
<path transform="translate(101,33)" d="m0 0h17l6 4 5 6 4 10 3 14 1 12-4 18-4 9-6 7-6 3-12 1-9-4-5-4-5-8-4-13-1-6v-12l4-17 6-12 5-6z" fill="#040504"/>
<path transform="translate(251,180)" d="m0 0 1 2-3 5v17l4 6 6 5 6 2h9l8-4 5-3-1 5-4 9-7 6-5 13-5 15-2 4-7-1-4-5-1-6-1-21h-8l-3 25-3 5-2 2-6-1-4-6-6-20-2-4-8-6-4-7v-19l3-9 11-6h9l11 4 9-1z" fill="#F7F8F8"/>
<path transform="translate(457,191)" d="m0 0h12l6 3 6 4-1 2-5-2-6-2 3 3 8 3 5-1 2 2 3 10 5 6 8 4h12l8-4 4-3-1 6-6 9-5 5-5 12-4 12-4 5h-6l-4-4-1-6-1-18-2-3-5 1-2 7-2 18-4 5h-7l-4-5-6-20-5-5v-2l-5-2-4-9-1-11 2-9 3 1v4l3-1-1-3-3-2 1-4 6-5z" fill="#F8F9F9"/>
<path transform="translate(603,701)" d="m0 0h43l8 8 2 4 1 12-1 13-5 6-5 5 12 28v3h-9l-5-8-9-21v-2h-23v30l-1 1h-7l-2-1v-77z" fill="#060404"/>
<path transform="translate(308,32)" d="m0 0h8l3 1 1 2v7l-6 1 1 8-1 31 1 21 1 3 6 3-1 7h-25l1-7 3-3-1-6-18-34h-2l1 28 1 13 4 2 1 5-7 2h-14l-2-1 1-6 4-4 1-39v-18l-2-7-3-3 1-5h20l-1 7-1 4 4 10 8 16 7 13 2 1-1-41-6-5v-4l2-1z" fill="#040504"/>
<path transform="translate(549,710)" d="m0 0h21l5 3 2 6v44l-2 6-3 2h-29l-5-3-1-2-1-25v-18l2-10 2-2z" fill="#F9FAFA"/>
<path transform="translate(181,710)" d="m0 0h28l4 2 2 5v48l-3 5-2 1h-29l-5-3-1-2v-51l4-4z" fill="#FCFBFA"/>
<path transform="translate(255,710)" d="m0 0h25l6 3 2 4v47l-3 6-2 1h-29l-5-4-1-2v-49l5-5z" fill="#FCFBFA"/>
<path transform="translate(250,701)" d="m0 0h36l7 5 5 8v51l-2 6-4 5-8 4h-31l-7-2-6-7-2-5v-53l4-6zm5 9-5 3-2 3v49l4 5 2 1h29l4-4 1-3v-47l-3-5-5-2z" fill="#050304"/>
<path transform="translate(178,701)" d="m0 0h35l7 5 4 6 1 4v44l-1 9-4 6-5 4-4 1h-33l-5-2-6-7-2-7v-50l4-6 6-6zm3 9-5 3-1 2v51l3 4 3 1h29l4-4 1-2v-48l-2-5-4-2z" fill="#050404"/>
<path transform="translate(540,701)" d="m0 0h35l8 7 3 3 1 3v48l-2 9-9 8-5 1h-28l-7-2-8-8-1-6v-52l10-10zm9 9-9 1-3 4-1 8v18l1 25 3 4 3 1h29l4-3 1-5v-44l-2-6-5-3z" fill="#050505"/>
<path transform="translate(672,701)" d="m0 0h52l-1 10h-41v23h38v9h-38v27h27l15 1v8l-1 1h-50l-1-1z" fill="#040404"/>
<path transform="translate(313,701)" d="m0 0h9l1 40 11-12 7-8 9-10 8-9 2-1h10l-6 9-13 14-8 10 2 5 10 16 14 21 1 4h-8l-5-3-13-19-8-12v-2h-4l-2 4-7 9-1 22-1 1h-8l-1-1v-77z" fill="#040404"/>
<path transform="translate(413,701)" d="m0 0h40l1 2-1 8-38 1-3 3-1 2v8l2 7 4 2 30 1 5 4 5 7 1 6v11l-3 9-8 7-4 1h-39l-1-1v-8l2-1 38-1 3-3 1-3v-12l-3-5-1-1-29-1-5-2-7-7-2-5v-13l2-7 8-8z" fill="#060404"/>
<path transform="translate(326,32)" d="m0 0h31l23 1 2 16v7l-2 7-4-1-4-7v-14l-6-1-7 1-1 27v29l1 6 9 3 4 4-3 5-2 1h-31l-1-2v-7l1-2 11-2 1-27v-34l-12-1-1 17-2 3-9 1v-24z" fill="#050806"/>
<path transform="translate(105,42)" d="m0 0h10l6 5 4 11 2 11v12l-3 13-8 11-5 3-7-2-7-8-5-15v-15l3-15 6-9z" fill="#FBFBFA"/>
<path transform="translate(227,42)" d="m0 0h9l6 4 4 8 3 15v11l-2 12-6 9-6 6-9-1-7-8-4-11-1-5v-14l3-14 4-8z" fill="#FAFAFA"/>
<path transform="translate(415,42)" d="m0 0 7 1 5 4 3 8 3 16v8l-2 13-6 9-6 6-9-1-7-8-4-11-1-5v-14l4-17 4-6 3-2z" fill="#F9FAFA"/>
<path transform="translate(192,162)" d="m0 0h4l-1 4-11 11-7 8-12 13-6 7h-2l-2 4-12 12-8 7-12 12-8 7-7 7-9 6-10 9-4 5-1 5-6 4 10-3 21-7 24-6 16-3 9-1h28l-3 2 3 2-1 1-28 1-7 3-24 16-44 29-5 3-5 1-1 3h-2l-3 3-2-2 11-9 16-11 18-12 17-11 15-10 2-2-19 4-21 6-21 8-14 6-11 7h-4l1-4 13-10 12-11 7-8 13-13 8-7 10-9 15-15 8-7 19-19 14-16h2l2-4 12-13z" fill="#080A07"/>
<path transform="translate(290,368)" d="m0 0 10 2h5l4-1 28 5 24 6 22 7 2-1 16 7 11 5 5 2 10 10v4l-4 3-7-1-21-11-7-7-16-5-17-3-10-2-2-2-35-5-40-3 2-2h3v-2h9l7 1 1-2 1 1v-3z" fill="#109A4D"/>
<path transform="translate(164,43)" d="m0 0h9l8 5 4 5 4 10v13l-3 16-4 6-5 5h-11l-5-3-2-5v-13l1-11v-25l1-2z" fill="#FAFAFA"/>
<path transform="translate(475,44)" d="m0 0 4 1 8 7v2l4 2 12 13 11 12 7 9 9 10 9 11 11 12 7 8 8 8 7 8 12 14 7 10 8 14 3 7h-3l-1-2-3-1-6-12-9-12-9-11-12-13-10-10-7-8-11-13-9-10-18-22 3 12v10l-3 14-7 10h-2l-1 3-14 8-32 16-11 7-7 5-1-4 8-7 16-9 16-8 19-10 5-5 5-6 3-9v-17l-5-13-10-14-10-12z" fill="#2A1313"/>
<path transform="translate(700,517)" d="m0 0h23l1 1v5l-6 1h-15l-18 2-7 2-20 3-1 1-22 3-7 2-13 2-7 2-9 2v1l-15 2-6 2-15 3-4 1-16 3-16 4v1l-14 2-2 2-15 2-17 4h-5v2l-14 3-4 2-10 1-2 2-13 2-2 2-11 1-4-3 5-2 55-14 35-8 38-9 36-8 14-3 44-9h6v-2l9-2 14-1 24-5z" fill="#0A2A17"/>
<path transform="translate(616,328)" d="m0 0h40l22 3 22 5 26 8 25 10 9 4-2 1v2l-5-1-25-10-24-8-24-6-30-4h-23l-21 2-34 6-24 7-17 7-15 8-19 13-8 8-9 11-16 21-3 3 1-7 11-17 9-10 5-5 10-9 14-10 17-10 20-8 16-5 17-4z" fill="#0A0E0A"/>
<path transform="translate(598,295)" d="m0 0h28l35 3 36 1-4 5h-20l-17-1-18-2-21-1h-18l-20 2-18 4-18 6-16 8-12 8-10 8-10 9-10 11-10 13-11 18-8 17-4 11-4 2 2-9 6-16 7-14 9-13 10-13 14-15 11-9 12-9 12-7 19-8 24-6 12-2z" fill="#2B1413"/>
<path transform="translate(463,701)" d="m0 0h56v10h-22l-1 68-9 1-1-1v-68h-22l-1-2z" fill="#050806"/>
<path transform="translate(194,359)" d="m0 0h51l30 2 33 4 33 7 25 7 18 7-1 2-33-10-29-6-25-4-40-4-82 1-34 5-37 8-39 11-5 1v-3l33-11 24-6 31-6 31-4z" fill="#070E09"/>
<path transform="translate(507,184)" d="m0 0h8l9 5 4 6 1 9-3 9-8 7-3 1h-12l-8-5-5-10v-7l3-7 4-4z" fill="#E8F4F7"/>
<path transform="translate(203,328)" d="m0 0h36l38 5 28 6 30 9 21 8 19 9 10 6 9 5 10 7 10 8 5 5v2l4 2 2 5h2l6 10v2l-3 1-6-2 1-2h2l-2-5-19-19-15-10-19-11-21-10-24-9-21-6-29-6-16-2-9-1-24-2h-14l-31 2-1-3h-8v-1z" fill="#180F0D"/>
<path transform="translate(186,263)" d="m0 0 25 2 22 4 27 7 20 7 27 12 21 11 19 12 12 8 21 16 16 15 5 5 6 7 6 6 3 5 3 2 1 4-4-2-15-16-12-12-8-7-14-11-8-6-15-10-13-8-21-12-33-15-27-9-26-6-25-3-14-1v-1l-5-1 3-2z" fill="#2B1112"/>
<path transform="translate(638,446)" d="m0 0h17v3l-6 1-58 4-45 5-49 7-50 9-47 9-21 3-2-1v-2l12-3 43-8 56-10 43-7 42-5 32-3z" fill="#070D09"/>
<path transform="translate(105,743)" d="m0 0h32l5 4 1 3v14l-3 6-2 1h-33z" fill="#FCFBFA"/>
<path transform="translate(613,710)" d="m0 0h27l5 3 2 8v12l-4 6-3 1h-28v-29z" fill="#F9FAFA"/>
<path transform="translate(519,439)" d="m0 0 4 1-2 3-38 6-79 12-32 6-39 8-44 11h-5l1-4 31-8 30-7 40-8 43-7 54-8 29-4z" fill="#060B08"/>
<path transform="translate(599,216)" d="m0 0 2 3 1-2 2 1-4 11-6 9-12 14-12 11-11 9-13 11-16 12-17 12-14 10-13 10-10 8-12 12-8 11-6 14-4 16-1-3h-2l-1 3 1-8 5-16 8-15 12-13 14-13 18-13 16-11 19-14 14-11 14-12 12-11 8-7 9-11 6-11z" fill="#2C1212"/>
<path transform="translate(506,477)" d="m0 0 4 1-1 2-15 4-105 21-37 9-27 8-39 14h-7v-3l26-9 35-12 36-9 43-9 56-11z" fill="#060A07"/>
<path transform="translate(212,152)" d="m0 0h15l13 2 21 6 20 9 21 11 19 13 17 12 26 22 13 13v3l-5-1-12-12-11-9-13-11-18-13-18-12-15-9-19-9-21-7-16-3h-17l-11 4-5 3-3-3 8-6z" fill="#291212"/>
<path transform="translate(177,584)" d="m0 0 8 1 72 20 44 13 35 11 31 11 10 5v3l-9-2-24-9-43-14-95-27-27-8-2-1z" fill="#050806"/>
<path transform="translate(105,710)" d="m0 0h28l5 5 1 3v9l-2 6-2 1h-30z" fill="#FBFBFA"/>
<path transform="translate(750,577)" d="m0 0 2 1-8 5-10 5-24 8-25 6-28 6-84 14-38 8-71 18-28 7-19 4h-3l2-5 5-12 3-8 1 3-3 12-2 7 7-2 1-1 12-2 22-6 22-5 42-11 16-4 17-3 20-4 13-2 40-7 36-6 14-3 25-6 11-3 8-3 10-4z" fill="#E3F2F7"/>
<path transform="translate(350,378)" d="m0 0 7 1 26 8 2-1 16 7 11 5 5 2 10 10v4l-4 3-7-1-21-11-7-7-9-4-6-3-1-2-9-5-7-1-4-2v-2z" fill="#17A14C"/>
<path transform="translate(592,411)" d="m0 0h26l24 1 14 2 3 3h-97l-34 2-18 2h-6v-4l13-2 42-3z" fill="#07150D"/>
<path transform="translate(452,191)" d="m0 0 3 1-7 6v3l4 3-1 3h-3l-1-4-2-1-1 11 2 12 3 6 4 2 6 7 6 20 3 4h7l3-4 3-24 3-3 5 1 2 3 1 18 2 9h8l4-6 7-21 5-5 6-8 4-7 1 3-1 6-11 11-7 19-4 9-5 3-8-1-4-6-1-4-1-21-2 1-2 18-4 11-4 2h-7l-3-1-6-16-5-12-9-8-4-11v-13l4-10z" fill="#280F10"/>
<path transform="translate(267,180)" d="m0 0 9 1v7h6l2 2-1 12-6 4-2 5-2 1h-7l-5-6-5-4v-12l4-4 2-1 2-4z" fill="#241914"/>
<path transform="translate(94,463)" d="m0 0 9 2 30 13 31 13 20 9 34 16 18 8 2 1v3l-6-1-25-11-28-13-32-14-43-18-10-5z" fill="#050806"/>
<path transform="translate(655,381)" d="m0 0h9l4 5 1 5-3 1-2-1v-2h-2v2h-38l-39-1-2 1h-17l-2-2 4-1 21-1 19-3h23z" fill="#F21D23"/>
<path transform="translate(266,175)" d="m0 0h7l10 5 5 7 1 5v7l-3 7-8 7-7 3-9-2-6-4-4-6-2-7 1-9 4-7 8-5zm1 5-4 2-1 3-5 3-1 2v12l7 6 3 4h7l2-1 3-6 5-3 1-12-2-2h-6v-7z" fill="#99D7EE"/>
<path transform="translate(192,162)" d="m0 0h4l-1 4-11 11-7 8-12 13-6 7h-2l-2 4-12 12-8 7-12 12-8 7-7 7-9 6-8 6v-3l8-8 8-7 10-9 15-15 8-7 19-19 14-16h2l2-4 12-13z" fill="#090C09"/>
<path transform="translate(429,158)" d="m0 0m-1 1 3 2-7 8-11 12-8 11-9 16-6 16-2 10v16l2 8 1 3v7l-3-3-4-9-6-8-4-5h3l1-2 4 4 2-18 5-15 8-16 7-11 10-13 11-11z" fill="#211210"/>
<path transform="translate(203,328)" d="m0 0h36l38 5 28 6 3 2h-2v2l-9-1-20-4-16-2-9-1-24-2h-14l-31 2-1-3h-8v-1z" fill="#2A1614"/>
<path transform="translate(507,188)" d="m0 0h8l1 1 1 7h6l1 4-2 7-5 2-2 6-3 1h-7l-2-1-2-5-4-1-1-2v-10l7-5 1-3z" fill="#291514"/>
<path transform="translate(639,528)" d="m0 0h8v1l-31 6-95 21-38 9-68 17 4 3 4 12 4 8 1 4v18l-2 6h-1v-21l-3-12-7-11-4-5-4-4 12-2 25-6 44-11 27-6 30-7 27-6 28-6 27-6z" fill="#BCE4F2"/>
<path transform="translate(391,436)" d="m0 0h4l-1 4-50 10-32 8-39 12-4-2 1-2 31-10 30-8 43-9z" fill="#070B08"/>
<path transform="translate(165,332)" d="m0 0h17l1 3-38 5-36 6-26 6-17 5-2-4 19-6 26-6 41-7z" fill="#0B0C09"/>
<path transform="translate(502,89)" d="m0 0 3 2 2-1v10l-3 14-7 10h-2l-1 3-14 8-32 16-11 7-7 5-1-4 8-7 16-9 16-8 19-10 5-5 5-6 3-9z" fill="#271814"/>
<path transform="translate(509,179)" d="m0 0h8l6 4 3 3v2l4 2 3 8-2 12-3 5h-2l-2 4-6 4-3 1h-12l-8-4-6-7-2-6 1-12 6-8 11-7zm-2 5-11 5-5 6-1 4v7l5 10 8 5h12l6-3 6-7 2-7-1-9-4-6-9-5z" fill="#281212"/>
<path transform="translate(111,422)" d="m0 0 8 1 31 15 52 23 5 3v3l-10-3-19-8-29-13-30-14-8-5z" fill="#050605"/>
<path transform="translate(203,196)" d="m0 0h1l1 21 5 8 7 5 5 13 4 13 4 4 5-1 3-5 3-25 1-1h6l3 3 1 19 2 8 2 2 5 2-3 2-5-2-5-8-1-22-2-1-2 19-3 8-6 6h-6l-6-9-8-22-7-7-4-6-2-8v-8z" fill="#271211"/>
<path transform="translate(545,343)" d="m0 0 6 2-3 2-17 7-15 8-19 13-8 8-9 11-16 21-3 3 1-7 11-17 9-10 5-5 10-9 14-10 17-10z" fill="#110A0A"/>
<path transform="translate(656,461)" d="m0 0h8l-1 3-27 5-25 4-31 4-20 2h-13l-1-3 52-6 54-8z" fill="#08100B"/>
<path transform="translate(124,562)" d="m0 0h25l25 3 25 6 17 5 8 4v3l-9-2-24-7-19-4-29-3-16-1-3-2z" fill="#050806"/>
<path transform="translate(640,428)" d="m0 0h9l3 1v2l-2 1-44 2-43 4-14 2h-12l1-3 35-5 36-3z" fill="#08140C"/>
<path transform="translate(475,44)" d="m0 0 4 1 8 7v2l4 2 12 13 11 12 7 9h-3l-2 2-10-11-2-2 2 6v8l-5-5-5-13-10-14-10-12z" fill="#060907"/>
<path transform="translate(598,295)" d="m0 0h28l35 3 36 1-4 5h-20l-17-1-18-2-21-1-11-3-8-1z" fill="#232118"/>
<path transform="translate(267,173)" d="m0 0h7l10 3 7 9 1 4v11l-3 7-4 5-8 5-3 1h-9l-8-3-7-7-2-4v-17l5-8 7-4zm-1 2-8 4-5 5-3 9 1 8 4 8 5 4 4 2 7 1 7-3 8-7 3-7v-7l-2-7-4-5-10-5z" fill="#251613"/>
<path transform="translate(212,152)" d="m0 0h15l13 2 21 6 20 9 7 4 1 4-6-2-17-8-21-7-16-3h-17l-11 4-5 3-3-3 8-6z" fill="#271011"/>
<path transform="translate(174,364)" d="m0 0h8l1 1h44v2l3 1-1 4h-10l-7 2h-16l-7-1-6-2-8-1 6-3v-2h-7z" fill="#0F994D"/>
<path transform="translate(400,362)" d="m0 0 4 2 12 12 7 8 8 10-2-9-1-5h4l4 11 1 5h2l4-11h2l-1 12-3 14h-3l-9-11-10-12-1-6-5-4-3-5-10-10z" fill="#080D09"/>
<path transform="translate(97,448)" d="m0 0 6 1 38 17 20 8 17 7 1 4-6-1-30-12-28-12-16-8z" fill="#050706"/>
<path transform="translate(751,578)" d="m0 0h5l-5 5-8 5-21 8-25 7-27 6-9 1 2-4 8-2 28-6 24-7 18-7z" fill="#0B110C"/>
<path transform="translate(264,592)" d="m0 0h7l30 8 29 10 12 5 2 2v3l-11-3-15-6-28-9-23-6-3-2z" fill="#050A07"/>
<path transform="translate(293,577)" d="m0 0 12 2 28 7 30 10 10 5v4l-17-6-27-9-31-8-6-3z" fill="#050A07"/>
<path transform="translate(141,541)" d="m0 0 13 1 23 4 24 6 24 8 2 1v2l-3 1-34-10-23-5-24-4-2-1z" fill="#060A07"/>
<path transform="translate(342,492)" d="m0 0h5v3l-37 9-22 8-17 7-3-1 1-3 17-8 27-9 23-5z" fill="#060605"/>
<path transform="translate(720,298)" d="m0 0 5 2 18 13 13 10 14 12 9 8v4l-4-1-11-10-11-9-32-24-3-4z" fill="#2A1312"/>
<path transform="translate(539,626)" d="m0 0 6 1v1l-30 7-67 17-25 6-9 1 2-5 5-12 3-8 1 3-3 12-2 7 7-2 1-1 12-2 22-6 22-5 42-11z" fill="#DCEFF6"/>
<path transform="translate(528,217)" d="m0 0 1 3-1 6-11 11-7 19-4 9-5 3-8-1-4-6-1-4-1-21-2 1-2 14h-2l-1-9 2-7 2-2 5 1 2 3 1 18 2 9h8l4-6 7-21 5-5 6-8z" fill="#291D17"/>
<path transform="translate(142,370)" d="m0 0 7 1 3 4v2l-10 2-5 2-8 1-6 1-2-1v2l-11 1h-6v-5l8-2h8l-1-3 10-3h3l6 2 4-3z" fill="#0F9A4D"/>
<path transform="translate(685,333)" d="m0 0 11 2 24 7 19 7 21 9-2 1v2l-5-1-25-10-24-8-24-6v-1h5z" fill="#271111"/>
<path transform="translate(129,280)" d="m0 0h2v3l-6 3-5 5-5 4-34 23-7 3h-2l-1 3h-2l-3 3-2-2 11-9 16-11 18-12 17-11z" fill="#251111"/>
<path transform="translate(270,186)" d="m0 0 6 2 4 5-1 7-2 4-13 1-4-6v-8l4-3z" fill="#F21D23"/>
<path transform="translate(748,277)" d="m0 0 3 1-2 3 2 1-10 7-16 8-7 3-15 3h-10l4-4 20-5 15-6 11-7z" fill="#271111"/>
<path transform="translate(507,184)" d="m0 0h8l9 5 4 6 1 9-3 9-9 2-1-4 3-3 3-2 1-9h-6l-1-1-1-7h-10l-1-2z" fill="#96D6EE"/>
<path transform="translate(386,373)" d="m0 0 5 1 13 9 10 8 5 5v2l4 2 2 5h2l6 10v2l-3 1-6-2 1-2h2l-2-5-19-19-15-10-4-4 1-1z" fill="#08110B"/>
<path transform="translate(266,175)" d="m0 0h7l10 5 5 7 1 5v7l-3 7-2-3v-12l-2-2-6-1v-7h-13-3-2l-1 4-5 3 2-5 4-4z" fill="#EFF7F9"/>
<path transform="translate(181,466)" d="m0 0 9 2 45 17v3l-8-1-31-11-13-5-2-2z" fill="#050505"/>
<path transform="translate(242,228)" d="m0 0h6l3 3 1 19 2 8 2 2 5 2-3 2-5-2-5-8-1-22-2-1-2 19-2 5-3 1 3-27z" fill="#10170F"/>
<path transform="translate(594,331)" d="m0 0h5v2l4-1v2l-20 4-18 4-11 3-7-1 1-2 16-5 17-4z" fill="#0F0F0B"/>
<path transform="translate(492,374)" d="m0 0 2 1-2 5-9 10-21 28-1-4 6-11 7-10 10-12z" fill="#240E0F"/>
<path transform="translate(185,486)" d="m0 0 5 1 12 5 30 13v4l-10-3-35-15-2-2z" fill="#050705"/>
<path transform="translate(267,173)" d="m0 0h7l3 3h-11l-8 4-3 1-2 5-2 7 1 8 4 8 8 5 4 2-3 2-8-3-7-7-2-4v-17l5-8 7-4z" fill="#241512"/>
<path transform="translate(622,381)" d="m0 0h33v1l-26 3h-21l-19 3h-18l4-3 39-3z" fill="#170709"/>
<path transform="translate(159,401)" d="m0 0 5 1 2 5 20 9 13 5 7 3 10 4 12 6-3 1-38-16-30-13-4-2v-2z" fill="#E1F1F7"/>
<path transform="translate(348,404)" d="m0 0 10 1 9 3 6 1v2l-15 6-27 8-26 7h-6l3-2 26-7 31-9 5-4-3-2-13-3z" fill="#BEE4F3"/>
<path transform="translate(429,158)" d="m0 0m-1 1 3 2-7 8-11 12-8 10-3-3 12-16 11-11z" fill="#0A0807"/>
<path transform="translate(700,517)" d="m0 0h23l1 1v5l-6 1h-21l4-4h-7l2-2z" fill="#336248"/>
<path transform="translate(353,356)" d="m0 0 5 1 17 8 10 6 3 2 1 3-3 1-16-9-19-9z" fill="#291413"/>
<path transform="translate(509,179)" d="m0 0h8l6 4 3 3v2l4 2 2 5-2 3v-4l-2-1-5-6-8-2h-8l-7 3h-4l2-4 7-4z" fill="#0A120B"/>
<path transform="translate(287,213)" d="m0 0 1 3-1 6-10 11-5 13-5 14h-3l3-10 5-16 4-6 5-4 5-10z" fill="#291614"/>
<path transform="translate(585,389)" d="m0 0 77 2v-2h2v2l2 1-39 1-57-1 4-2h9z" fill="#2D0F11"/>
<path transform="translate(186,263)" d="m0 0 25 2 7 1v4l-19-1-14-1v-1l-5-1 3-2z" fill="#2A1A16"/>
<path transform="translate(424,634)" d="m0 0 1 3-3 12-2 7 7-2 1-1 12-2 15-4h3v2l-25 7-16 3h-3l2-5 5-12z" fill="#EEF6F9"/>
<path transform="translate(331,370)" d="m0 0 18 4 23 7 12 5-1 2-33-10-18-4-2-1z" fill="#150709"/>
<path transform="translate(261,179)" d="m0 0 3 3-2 4-4 2-1 2v12l1 3h-2l-1 3-3-4-2-7 1-9 6-4 1-3z" fill="#A8DCF0"/>
<path transform="translate(270,333)" d="m0 0h7l28 6 3 2h-2v2l-9-1-20-4-7-1z" fill="#261513"/>
<path transform="translate(627,331)" d="m0 0h23l22 3v1h-12l-12-1h-26l-21 1v-1l12-2z" fill="#B4E1F1"/>
<path transform="translate(386,238)" d="m0 0h1l1 11 2 9 1 3v7l-3-3-4-9-6-8-4-5h3l1-2 4 4v3l2-2 1-5z" fill="#080D09"/>
<path transform="translate(459,243)" d="m0 0 2 3 4 14 3 4h7l3-4 2-17h1v8h2l-1 7-3 8-4 2h-7l-3-1-6-16-1-5z" fill="#28251B"/>
<path transform="translate(518,185)" d="m0 0 5 1 4 4v2l2 1 3 2 1 5-2 10-3 5h-2l-2 4-6 4h-3v-3l6-3 5-6 2-7-1-9-3-4v-2l-5-2z" fill="#281B16"/>
<path transform="translate(586,296)" d="m0 0h20l6 2v1l-13 1-22 2v-2h-3v-2z" fill="#0B130C"/>
<path transform="translate(294,364)" d="m0 0 14 1 23 5-1 3-21-3-17-3z" fill="#0B0E0A"/>
<path transform="translate(603,614)" d="m0 0 3 1-4 2-33 6-20 4h-8l1-2 17-3 20-4 13-2z" fill="#ECF5F8"/>
<path transform="translate(484,233)" d="m0 0 5 1 2 3v22h-2l-1-2-1-21-2 1-2 14h-2l-1-9 2-7z" fill="#050605"/>
<path transform="translate(357,222)" d="m0 0 5 3 15 15v3l-5-1-12-12-6-5v-2z" fill="#260F10"/>
<path transform="translate(754,263)" d="m0 0 8 2 1 2-3 6-8 8h-3l2-6 5-6-10-2v-1l6-2z" fill="#0F0A09"/>
<path transform="translate(596,189)" d="m0 0 3 1 2 2 4 5-1 20h-2l-1 3h-1l-1-18-2-9z" fill="#070907"/>
<path transform="translate(217,180)" d="m0 0h9l16 4 3 3-1 1-9-1-8-3h-9l-9 5-2-1 4-5z" fill="#090C09"/>
<path transform="translate(353,548)" d="m0 0h9l-4 3-14 1-2-1 1 3-1 2 9 1 1 2-9-1-14-4 1-2 15-3z" fill="#A59FA1"/>
<path transform="translate(388,217)" d="m0 0 3 1-2 11-1 9h-2l-1 9-3 1 1-16 3-12z" fill="#271B15"/>
<path transform="translate(507,184)" d="m0 0h8l4 2 2 4 4 4-2 3h-6l-1-1-1-7h-10l-1-2z" fill="#9FD9EF"/>
<path transform="translate(418,585)" d="m0 0 2 4 5 12 3 8v18l-2 6h-1v-21l-3-12-6-10 1-4z" fill="#CBE9F4"/>
<path transform="translate(568,336)" d="m0 0 8 1v2l-22 6-7-1 1-2 16-5z" fill="#100909"/>
<path transform="translate(38,352)" d="m0 0 2 1-2 3 1 7-17 7-2-1 16-15z" fill="#EDF6F9"/>
<path transform="translate(622,333)" d="m0 0h27l9 1v1l-25 2-30-1v-1z" fill="#109B4D"/>
<path transform="translate(651,606)" d="m0 0 6 1v1l-48 8h-5l4-3z" fill="#E0F1F7"/>
<path transform="translate(714,295)" d="m0 0 4 1v2l-7 3-8 2h-10l4-4z" fill="#221612"/>
<path transform="translate(670,376)" d="m0 0h34v2l-22 1h-20l3-2z" fill="#36AA7B"/>
<path transform="translate(701,519)" d="m0 0 3 1-5 3h-2v2h-7l-5 1h-7l1-3 5-2z" fill="#0A190E"/>
<path transform="translate(685,333)" d="m0 0 11 2 11 3-1 4-18-4-8-2v-1h5z" fill="#221311"/>
<path transform="translate(165,332)" d="m0 0h17l1 3-17 2h-8v-3l5-1z" fill="#080706"/>
<path transform="translate(539,626)" d="m0 0 6 1v1l-30 7-8 2h-7l3-2 23-6z" fill="#E2F2F7"/>
<path transform="translate(687,492)" d="m0 0 8 2 13 6 7 3-4 1-8-3-11-5h-19l4-2z" fill="#C8E8F4"/>
<path transform="translate(433,575)" d="m0 0 3 1-9 3-12 3 3 2-2 5-7-6-2-3 12-2z" fill="#BFE5F3"/>
<path transform="translate(545,343)" d="m0 0 6 2-3 2-17 7h-2l-1-4z" fill="#1F0D0E"/>
<path transform="translate(547,129)" d="m0 0h2l7 8 12 12 7 8-1 2-11-11-6-5-7-8-3-4z" fill="#F1F7F9"/>
<path transform="translate(586,384)" d="m0 0h14v2l-11 2h-18l4-3z" fill="#0B0707"/>
<path transform="translate(452,191)" d="m0 0 3 1-7 6v3l4 3-1 3h-3l-1-4-2-1-1 9h-2l-1-4 4-10z" fill="#202F1E"/>
<path transform="translate(470,399)" d="m0 0 4 1-2 5-10 13-1-4 6-11z" fill="#060605"/>
<path transform="translate(348,404)" d="m0 0 10 1 9 3 6 1v2l-12 5h-5l3-2 5-4-3-2-13-3z" fill="#E9F4F8"/>
<path transform="translate(608,384)" d="m0 0h20v3h-23l-3-2z" fill="#FDFCFB"/>
<path transform="translate(159,401)" d="m0 0 5 1 2 5 7 3v1l-7-1-13-6v-2z" fill="#F0F7F9"/>
<path transform="translate(307,370)" d="m0 0h8l11 2v2l-11-1h-6v2h-3l1 3-5-1v-2l-1-2 6-1z" fill="#1AA851"/>
<path transform="translate(186,263)" d="m0 0 14 1-1 4h-14v-1l-5-1 3-2z" fill="#230D0E"/>
<path transform="translate(455,647)" d="m0 0h3v2l-25 7h-6l2-3 14-3z" fill="#E7F3F8"/>
<path transform="translate(718,519)" d="m0 0h5l1 4-6 1h-17l1-2 8-1v-1l8 1z" fill="#A0D9ED"/>
<path transform="translate(715,504)" d="m0 0 5 1 14 6 6 4v1l-7-1-18-9z" fill="#E5F3F8"/>
<path transform="translate(460,188)" d="m0 0h9l11 6 1 3-6-2-6-3-13-1 1-2z" fill="#202017"/>
<path transform="translate(135,276)" d="m0 0h7l-5 5-16 10-2-1 5-5 7-2 1-5z" fill="#090807"/>
<path transform="translate(500,564)" d="m0 0h10v1l-25 5-7 2h-4v-2l15-3z" fill="#B1E0F1"/>
<path transform="translate(559,551)" d="m0 0 3 2-13 3-12 2-10 2-1-2 15-3 12-3z" fill="#B2E0F1"/>
<path transform="translate(494,187)" d="m0 0 3 1-5 7-1 4v8h-2l-1 2-1-2 1-12z" fill="#222017"/>
<path transform="translate(373,565)" d="m0 0 7 1 12 4 8 4 7 5-2 1-15-8-17-6z" fill="#DBEFF6"/>
<path transform="translate(687,599)" d="m0 0 2 1-8 3-20 4h-7l2-2 15-3z" fill="#EDF6F9"/>
<path transform="translate(203,196)" d="m0 0h1l1 21 3 5-3 1-3-6-1-5v-8z" fill="#291E17"/>
<path transform="translate(250,204)" d="m0 0 5 3 5 5 8 3-3 3-8-3-7-7z" fill="#260E10"/>
<path transform="translate(401,189)" d="m0 0 4 2-6 12-3 1v-6z" fill="#13130E"/>
<path transform="translate(453,399)" d="m0 0h2v8l-4 9-3 1 2-9z" fill="#0B0908"/>
<path transform="translate(509,363)" d="m0 0 2 2-11 8-7 5v-3l4-5 4-3 4-1z" fill="#120608"/>
<path transform="translate(484,233)" d="m0 0 5 1-2 2-2 1-2 14h-2l-1-9 2-7z" fill="#09160D"/>
<path transform="translate(792,366)" d="m0 0 5 3 4 6-7-1-6-4 1-3z" fill="#E6F3F8"/>
<path transform="translate(306,341)" d="m0 0 10 1 7 3-2 2-7-1-8-2z" fill="#160C0C"/>
<path transform="translate(30,393)" d="m0 0 5 2-2 1v3l-12 6 2-4z" fill="#E8F4F8"/>
<path transform="translate(146,368)" d="m0 0 4 1-3 3-4-1-3 3-4 1-5-3 4-2z" fill="#35B074"/>
<path transform="translate(166,365)" d="m0 0 13 1v1l-6 1 1 2h-4v-2h-9l-9 1v-2z" fill="#0F9A4D"/>
<path transform="translate(287,213)" d="m0 0 1 3-1 6-7 8-4-2 5-4 5-10z" fill="#233220"/>
<path transform="translate(582,387)" d="m0 0h2l-1 4h-17l-2-2 4-1z" fill="#E3F2F7"/>
<path transform="translate(441,209)" d="m0 0 3 4 2 12 1 5-3-1-3-9z" fill="#231110"/>
<path transform="translate(331,370)" d="m0 0 18 4-3 2-9-1-7-2z" fill="#190B0B"/>
<path transform="translate(680,300)" d="m0 0h9l2 3-1 1h-13v-3z" fill="#060204"/>
<path transform="translate(171,411)" d="m0 0 6 1 19 8v3l-25-11z" fill="#DAEFF6"/>
<path transform="translate(275,229)" d="m0 0h4l-2 4-4 10-3-1 1-5z" fill="#231B15"/>
<path transform="translate(491,255)" d="m0 0h1l2 9 8 1-1 3-8-1-4-6v-2h2z" fill="#261E17"/>
<path transform="translate(276,174)" d="m0 0 9 3 6 8h-3l-1-3-4-1-7-4z" fill="#0D2F19"/>
<path transform="translate(640,381)" d="m0 0h15v1l-26 3-3-2 2-1z" fill="#2D0E11"/>
<path transform="translate(507,184)" d="m0 0h8l4 2-2 1-2-1v2l-10 1-1-2z" fill="#BCE4F2"/>
<path transform="translate(424,579)" d="m0 0 2 1v2l3 2-11 1-4-3 5-2z" fill="#0C3A1E"/>
<path transform="translate(353,548)" d="m0 0h9l-4 3-18 1 1-2z" fill="#F1F7F9"/>
<path transform="translate(454,409)" d="m0 0 1 3h3l2 2-1 4h-8z" fill="#F8FAFA"/>
<path transform="translate(365,379)" d="m0 0 17 6 2 1-1 2-19-6z" fill="#130608"/>
<path transform="translate(423,416)" d="m0 0 9 2v2l2 1-6 1-9-4z" fill="#D6EDF6"/>
<path transform="translate(156,371)" d="m0 0h8l3 2h-2l-1 2-10 2v-4z" fill="#0F994D"/>
<path transform="translate(73,350)" d="m0 0 3 1-2 4-8 2-2-4z" fill="#0E0808"/>
<path transform="translate(229,188)" d="m0 0 9 3 6 3-1 2-5-1-8-4z" fill="#161911"/>
<path transform="translate(418,585)" d="m0 0 2 4 5 12v5l-2-4-7-12 1-4z" fill="#E8F4F8"/>
<path transform="translate(426,369)" d="m0 0 3 2 3 9-5 1-2-10z" fill="#1E1812"/>
<path transform="translate(343,352)" d="m0 0 6 1 4 2-1 3-6-1-5-2z" fill="#230E0F"/>
<path transform="translate(214,181)" d="m0 0 11 1v1l-10 2-6 4-2-1 4-5z" fill="#221512"/>
<path transform="translate(380,544)" d="m0 0h6l-1 2-3 1-19 1 4-2z" fill="#DEF0F7"/>
<path transform="translate(262,364)" d="m0 0h7l-2 2-1 3h-7l-1-2-3-2z" fill="#0F994D"/>
<path transform="translate(545,343)" d="m0 0 6 2-3 2-9 2-1-3z" fill="#1F0A0C"/>
<path transform="translate(701,519)" d="m0 0 3 1-5 3h-2v2h-4l-1-4-2-1z" fill="#150E0C"/>
<path transform="translate(659,381)" d="m0 0h5l4 5 1 5-3 1-2-1-1-9z" fill="#F2F8F9"/>
<path transform="translate(459,243)" d="m0 0 2 3 3 10v4h-2l-4-12z" fill="#291C17"/>
<path transform="translate(276,181)" d="m0 0 6 2h1v6l-7-1z" fill="#96D6EE"/>
<path transform="translate(425,409)" d="m0 0 2 1v4l-4 3-7-1 1-3h6z" fill="#119C4D"/>
<path transform="translate(303,396)" d="m0 0 19 2 4 2-21-1-2-1z" fill="#D4EDF5"/>
<path transform="translate(778,384)" d="m0 0 3 1 3 3v3l-17-3v-1h9z" fill="#119C4D"/>
<path transform="translate(778,344)" d="m0 0 4 2 4 5-1 2-4-1-4-5h2z" fill="#1A080A"/>
<path transform="translate(157,333)" d="m0 0h6l-3 2-2 1v2l-8 1v-4-1z" fill="#271C16"/>
<path transform="translate(480,243)" d="m0 0h1v8h2l-1 7-2 3-1-1z" fill="#262017"/>
<path transform="translate(707,594)" d="m0 0 3 2-20 5-2-1 6-3z" fill="#DEF0F7"/>
<path transform="translate(469,196)" d="m0 0 6 1 3 2 5 1v3l-5-1-9-4z" fill="#2A1513"/>
<path transform="translate(553,475)" d="m0 0h6l-3 2 2 2h-11l-1-3z" fill="#1C1511"/>
<path transform="translate(589,544)" d="m0 0h8l-4 2-8 2h-7l1-2z" fill="#AADDF0"/>
<path transform="translate(704,376)" d="m0 0h12l5 1v2l-17-1z" fill="#0F994D"/>
<path transform="translate(528,217)" d="m0 0 1 3-1 6-5 5-2-1 6-12z" fill="#203A22"/>
<path transform="translate(669,528)" d="m0 0h6l-4 3-14 1 1-2z" fill="#B4E1F1"/>
<path transform="translate(381,369)" d="m0 0 7 3 1 4-3 1-6-4z" fill="#211C15"/>
<path transform="translate(76,319)" d="m0 0v3l-12 9-1-2 1-2-2-1h6l1-3h2l3-3z" fill="#06180E"/>
<path transform="translate(748,534)" d="m0 0 2 4 2 14-3-1z" fill="#D1EBF5"/>
<path transform="translate(698,498)" d="m0 0h6l11 5-4 1-8-3-5-2z" fill="#F0F7F9"/>
<path transform="translate(470,399)" d="m0 0 4 1-2 5-4 2-2-2z" fill="#130B0A"/>
<path transform="translate(572,252)" d="m0 0 2 1-15 14-2-1 10-10z" fill="#F9FAFA"/>
<path transform="translate(239,255)" d="m0 0 2 1-7 8h-5l1-3 5-2z" fill="#1E0E0E"/>
<path transform="translate(380,394)" d="m0 0 7 1 5 2 2 5h2l-1 3-7-7-8-3z" fill="#0F994D"/>
<path transform="translate(750,355)" d="m0 0 6 1 4 3h-2v2l-5-1-2-1z" fill="#210A0D"/>
<path transform="translate(101,254)" d="m0 0m-2 1 2 1-3 5-7 5v-3z" fill="#111810"/>
<path transform="translate(715,504)" d="m0 0 5 1 9 4v1h-6l-8-4z" fill="#D5EDF5"/>
<path transform="translate(350,378)" d="m0 0 7 1 6 2-1 2h-6l-4-2v-2z" fill="#38B277"/>
<path transform="translate(519,187)" d="m0 0 5 2 4 6v2h-3l-1 2-1-7-4-3z" fill="#F3F8F9"/>
<path transform="translate(616,612)" d="m0 0h4v2l-11 2h-5l4-3z" fill="#DAEFF6"/>
<path transform="translate(125,372)" d="m0 0 4 1-9 3v2l-3 1-4-4z" fill="#6AC6AF"/>
<path transform="translate(587,385)" d="m0 0h13v1l-11 2h-5v-2z" fill="#2D0E11"/>
<path transform="translate(393,209)" d="m0 0 1 4-2 5-4-1 1-5h4z" fill="#1E0F0E"/>
<path transform="translate(452,191)" d="m0 0 3 1-7 6-2 3-1-4z" fill="#101F13"/>
<path transform="translate(518,560)" d="m0 0h7l-4 2-10 2-3-2z" fill="#A8DCF0"/>
<path transform="translate(690,524)" d="m0 0h3v2l-10 2h-5l1-2z" fill="#A1DAEF"/>
<path transform="translate(293,367)" d="m0 0 13 2-1 2-11-1z" fill="#16A34E"/>
<path transform="translate(489,207)" d="m0 0h2l4 7-1 2-4-1-2-6z" fill="#08130C"/>
<path transform="translate(527,198)" d="m0 0 2 1-1 10-2 3-2-1z" fill="#EAF5F8"/>
<path transform="translate(236,184)" d="m0 0h6l3 3-1 1h-6l-2-1z" fill="#292219"/>
<path transform="translate(275,169)" d="m0 0 6 2 8 5-2 1-12-6z" fill="#0B0A08"/>
<path transform="translate(539,626)" d="m0 0 6 1v1l-13 3-3-1 7-3z" fill="#D6EDF6"/>
<path transform="translate(322,369)" d="m0 0 9 1-1 3-9-1z" fill="#0C0A08"/>
<path transform="translate(511,360)" d="m0 0 4 3-4 2-2-1-2 2-3 2v-3z" fill="#281212"/>
<path transform="translate(500,332)" d="m0 0 2 1-12 11v-3l8-8z" fill="#F1F7F9"/>
<path transform="translate(184,330)" d="m0 0 4 1-1 2h-2v2l-3-1v-2h-8v-1z" fill="#281212"/>
<path transform="translate(507,257)" d="m0 0h1v5l-4 5-3-1z" fill="#271111"/>
<path transform="translate(71,319)" d="m0 0 3 1-2 1-1 3h-2l-3 3-2-2z" fill="#280C0F"/>
<path transform="translate(429,158)" d="m0 0m-1 1 3 2-3 4-5-1z" fill="#1C090B"/>
</svg>
